<svg id="visual" viewBox="0 0 900 600" width="900" height="600" xmlns="http://www.w3.org/2000/svg" xmlns:xlink="http://www.w3.org/1999/xlink" version="1.1"><rect x="0" y="0" width="900" height="600" fill="#002233"></rect><path d="M0 272L21.5 268.5C43 265 86 258 128.8 266.5C171.7 275 214.3 299 257.2 299C300 299 343 275 385.8 282.3C428.7 289.7 471.3 328.3 514.2 331C557 333.7 600 300.3 642.8 284.5C685.7 268.7 728.3 270.3 771.2 288C814 305.7 857 339.3 878.5 356.2L900 373L900 601L878.5 601C857 601 814 601 771.2 601C728.3 601 685.7 601 642.8 601C600 601 557 601 514.2 601C471.3 601 428.7 601 385.8 601C343 601 300 601 257.2 601C214.3 601 171.7 601 128.8 601C86 601 43 601 21.5 601L0 601Z" fill="#0066FF" stroke-linecap="round" stroke-linejoin="miter"></path></svg>