<svg id="visual" viewBox="0 0 900 600" width="900" height="600" xmlns="http://www.w3.org/2000/svg" xmlns:xlink="http://www.w3.org/1999/xlink" version="1.1"><rect x="0" y="0" width="900" height="600" fill="#002233"></rect><path d="M0 453L21.5 451.5C43 450 86 447 128.8 450.8C171.7 454.7 214.3 465.3 257.2 465.3C300 465.3 343 454.7 385.8 458C428.7 461.3 471.3 478.7 514.2 479.8C557 481 600 466 642.8 459C685.7 452 728.3 453 771.2 460.8C814 468.7 857 483.3 878.5 490.7L900 498L900 601L878.5 601C857 601 814 601 771.2 601C728.3 601 685.7 601 642.8 601C600 601 557 601 514.2 601C471.3 601 428.7 601 385.8 601C343 601 300 601 257.2 601C214.3 601 171.7 601 128.8 601C86 601 43 601 21.5 601L0 601Z" fill="#0066FF" stroke-linecap="round" stroke-linejoin="miter"></path></svg>